<svg width="20" height="24" viewBox="0 0 20 24" fill="none" xmlns="http://www.w3.org/2000/svg">
<path d="M18.0796 12.7154C17.4994 11.8219 16.7272 11.0775 15.8218 10.5336C16.2765 9.59549 16.5143 8.56424 16.5143 7.51339C16.5143 3.68553 13.4001 0.571289 9.57217 0.571289H0.806641V23.4284H12.2532C16.0811 23.4284 19.1954 20.3142 19.1954 16.4863C19.1954 15.1435 18.8095 13.8395 18.0796 12.7154ZM9.57217 9.54419H5.71798V5.48263H9.57217C10.692 5.48263 11.603 6.39361 11.603 7.51343C11.603 8.63325 10.692 9.54419 9.57217 9.54419ZM14.284 16.4863C14.284 17.6061 13.373 18.5171 12.2532 18.5171H5.71798V14.4556H12.2532C13.373 14.4555 14.284 15.3665 14.284 16.4863Z" fill="#343843"/>
</svg>
