<svg width="360" height="200" viewBox="0 0 360 200" fill="none" xmlns="http://www.w3.org/2000/svg">
<mask id="mask0" mask-type="alpha" maskUnits="userSpaceOnUse" x="0" y="0" width="360" height="200">
<path d="M336.375 0H23.625C10.5773 0 0 9.40202 0 21V179C0 190.598 10.5773 200 23.625 200H336.375C349.423 200 360 190.598 360 179V21C360 9.40202 349.423 0 336.375 0Z" fill="white"/>
</mask>
<g mask="url(#mask0)">
<path d="M336.375 0H23.625C10.5773 0 0 9.40202 0 21V179C0 190.598 10.5773 200 23.625 200H336.375C349.423 200 360 190.598 360 179V21C360 9.40202 349.423 0 336.375 0Z" fill="url(#paint0_linear)"/>
<path style="mix-blend-mode:soft-light" opacity="0.5" fill-rule="evenodd" clip-rule="evenodd" d="M-12.6133 208.375C20.9074 120.59 64.7546 61.9949 118.928 32.5888C173.102 3.18266 253.2 -8.85249 359.223 -3.51669V208.375H-12.6133Z" fill="url(#paint1_linear)"/>
<path style="mix-blend-mode:soft-light" opacity="0.5" fill-rule="evenodd" clip-rule="evenodd" d="M69.75 208.121C103.271 120.336 147.118 61.741 201.292 32.3349C255.466 2.92876 335.564 -9.1064 441.586 -3.7706V208.121H69.75Z" fill="url(#paint2_linear)"/>
<path style="mix-blend-mode:multiply" opacity="0.5" fill-rule="evenodd" clip-rule="evenodd" d="M-5.43359 208.121C-2.80901 150.819 50.65 132.338 154.943 152.679C259.237 173.019 330.146 115.322 367.67 -20.414L377.128 208.121H-5.43359Z" fill="url(#paint3_linear)"/>
</g>
<path d="M58 54.1961L58 35.8039C58 33.155 55.8547 31 53.2181 31L28.7823 31C26.1453 31 24 33.1554 24 35.8039L24 54.1961C24 56.845 26.1456 59 28.7823 59L53.2181 59C55.8547 59 58 56.845 58 54.1961ZM53.2181 32.4019C55.0854 32.4019 56.6045 33.9278 56.6045 35.8039L56.6045 40.0782L54.0489 40.0782C53.6636 40.0782 53.3511 40.3917 53.3511 40.7791C53.3511 41.1661 53.6636 41.48 54.0489 41.48L56.6045 41.48L56.6045 48.52L48.1247 48.52C48.0077 48.52 47.8947 48.5025 47.7882 48.4703C47.7715 48.4641 47.7544 48.4583 47.7369 48.4535C47.2834 48.2925 46.9574 47.8574 46.9574 47.3474L46.9574 42.6526C46.9574 42.1422 47.2834 41.7074 47.7369 41.5465C47.7544 41.5413 47.7715 41.5359 47.7882 41.5297C47.8947 41.4972 48.0077 41.48 48.1247 41.48L50.7904 41.48C51.1757 41.48 51.4882 41.1661 51.4882 40.7791C51.4882 40.3917 51.1757 40.0782 50.7904 40.0782L48.2436 40.0782L48.2436 39.7565C48.2436 37.1295 46.6994 34.7394 44.3099 33.6679C44.2052 33.6208 44.1372 33.5146 44.1372 33.3974L44.1372 32.4019L53.2181 32.4019ZM25.3955 40.0781L25.3955 35.8039C25.3955 33.9282 26.9146 32.4019 28.7823 32.4019L37.8628 32.4019L37.8628 33.3974C37.8628 33.5146 37.7952 33.6208 37.6901 33.6679C35.3006 34.7398 33.7564 37.1295 33.7564 39.7569L33.7564 40.0781L25.3955 40.0781ZM28.7823 57.5981C26.9146 57.5981 25.3955 56.0722 25.3955 54.1961L25.3955 49.9218L28.2015 49.9218C28.5871 49.9218 28.8993 49.6083 28.8993 49.2209C28.8993 48.8339 28.5871 48.52 28.2015 48.52L25.3955 48.52L25.3955 41.48L33.8756 41.48C33.9923 41.48 34.1053 41.4975 34.2118 41.5297C34.2285 41.5359 34.246 41.5417 34.2634 41.5468C34.717 41.7078 35.043 42.1426 35.043 42.6526L35.043 47.3474C35.043 47.8574 34.717 48.2925 34.2634 48.4535C34.246 48.4587 34.2285 48.4641 34.2118 48.4707C34.1053 48.5028 33.9923 48.52 33.8756 48.52L31.46 48.52C31.0747 48.52 30.7622 48.8339 30.7622 49.2209C30.7622 49.6083 31.0747 49.9218 31.46 49.9218L33.7564 49.9218L33.7564 50.2435C33.7564 52.8705 35.3006 55.2606 37.6901 56.3321C37.7952 56.3792 37.8628 56.4854 37.8628 56.6026L37.8628 57.5981L28.7823 57.5981ZM39.2583 57.5981L39.2583 56.6026C39.2583 55.9331 38.8662 55.3245 38.2592 55.0522C36.3716 54.2056 35.152 52.3182 35.152 50.2435L35.152 49.5794C35.9203 49.134 36.4385 48.3006 36.4385 47.3474L36.4385 42.6526C36.4385 41.6998 35.9203 40.866 35.152 40.4209L35.152 39.7569C35.152 37.6822 36.3716 35.7944 38.2592 34.9482C38.8662 34.6759 39.2583 34.0673 39.2583 33.3974L39.2583 32.4019L42.7417 32.4019L42.7417 33.3974C42.7417 34.0669 43.1338 34.6755 43.7408 34.9478C45.6284 35.7944 46.848 37.6818 46.848 39.7565L46.848 40.4206C46.0797 40.866 45.5619 41.6994 45.5619 42.6526L45.5619 47.3474C45.5619 48.3002 46.0797 49.134 46.848 49.579L46.848 50.2431C46.848 52.3182 45.6284 54.2056 43.7408 55.0518C43.1338 55.3241 42.7417 55.9327 42.7417 56.6026L42.7417 57.5981L39.2583 57.5981ZM44.1372 57.5981L44.1372 56.6026C44.1372 56.4854 44.2052 56.3792 44.3099 56.3321C46.6997 55.2606 48.2436 52.8705 48.2436 50.2435L48.2436 49.9218L56.6045 49.9218L56.6045 54.1961C56.6045 56.0722 55.0853 57.5981 53.2181 57.5981L44.1372 57.5981Z" fill="white"/>
<defs>
<linearGradient id="paint0_linear" x1="-1.02568e-06" y1="88" x2="362.107" y2="88" gradientUnits="userSpaceOnUse">
<stop stop-color="#2960FF"/>
<stop offset="1" stop-color="#5380FF"/>
</linearGradient>
<linearGradient id="paint1_linear" x1="369.205" y1="58.1006" x2="207.964" y2="290.124" gradientUnits="userSpaceOnUse">
<stop stop-color="#EEEEEE"/>
<stop offset="1" stop-color="#D8D8D8" stop-opacity="0"/>
</linearGradient>
<linearGradient id="paint2_linear" x1="451.568" y1="57.8467" x2="290.328" y2="289.87" gradientUnits="userSpaceOnUse">
<stop stop-color="#EEEEEE"/>
<stop offset="1" stop-color="#D8D8D8" stop-opacity="0"/>
</linearGradient>
<linearGradient id="paint3_linear" x1="387.398" y1="46.978" x2="212.115" y2="288.981" gradientUnits="userSpaceOnUse">
<stop stop-color="#EEEEEE"/>
<stop offset="1" stop-color="#D8D8D8" stop-opacity="0"/>
</linearGradient>
</defs>
</svg>
