<svg width="24" height="24" viewBox="0 0 24 24" fill="none" xmlns="http://www.w3.org/2000/svg">
<path d="M18.3215 19.6005L14.4375 15.7165L14.4375 18.375C14.4375 18.8928 14.0178 19.3125 13.5 19.3125C12.9822 19.3125 12.5625 18.8928 12.5625 18.375L12.5625 14.8594C12.5625 13.567 13.6139 12.5156 14.9062 12.5156L18.4219 12.5156C18.9397 12.5156 19.3594 12.9353 19.3594 13.4531C19.3594 13.9709 18.9397 14.3906 18.4219 14.3906L15.7634 14.3906L19.6472 18.2745C20.0134 18.6407 20.0134 19.2343 19.6472 19.6003C19.2812 19.9666 18.6876 19.9666 18.3215 19.6005ZM4.78125 10.5937C4.78125 11.1116 5.20093 11.5312 5.71875 11.5312L9.23437 11.5312C10.5267 11.5312 11.5781 10.4799 11.5781 9.1875L11.5781 5.67187C11.5781 5.15405 11.1584 4.73437 10.6406 4.73437C10.1228 4.73437 9.70312 5.15405 9.70312 5.67187L9.70312 8.33038L5.81909 4.44635C5.45306 4.08032 4.85944 4.08032 4.49341 4.44635C4.3103 4.62945 4.21875 4.86951 4.21875 5.10937C4.21875 5.34924 4.3103 5.58929 4.49341 5.7724L8.37726 9.65625L5.71875 9.65625C5.20093 9.65625 4.78125 10.0759 4.78125 10.5937ZM7.5 23.0625C7.5 23.5803 7.91968 24 8.4375 24L20.25 24C22.3178 24 24 22.3178 24 20.25L24 3.75C24 1.68219 22.3178 -7.35309e-08 20.25 -1.63918e-07L3.75 -8.85156e-07C1.68219 -9.75542e-07 -7.35309e-08 1.68219 -1.63918e-07 3.75L-8.85156e-07 20.25C-9.75542e-07 22.3178 1.68219 24 3.75 24C4.26782 24 4.6875 23.5803 4.6875 23.0625C4.6875 22.5447 4.26782 22.125 3.75 22.125C2.71619 22.125 1.875 21.2838 1.875 20.25L1.875 3.75C1.875 2.71619 2.71619 1.875 3.75 1.875L20.25 1.875C21.2838 1.875 22.125 2.71619 22.125 3.75L22.125 20.25C22.125 21.2838 21.2838 22.125 20.25 22.125L8.4375 22.125C7.91968 22.125 7.5 22.5447 7.5 23.0625Z" fill="#2960FF"/>
</svg>
