<svg width="24" height="20" viewBox="0 0 24 20" fill="none" xmlns="http://www.w3.org/2000/svg">
<path d="M22.6793 6.26953H5.52232C5.10893 6.26953 4.77344 6.60502 4.77344 7.01842C4.77344 7.43181 5.10853 7.7673 5.52232 7.7673H22.6793C23.0931 7.7673 23.4286 7.43181 23.4286 7.01842C23.4286 6.60502 23.0931 6.26953 22.6793 6.26953Z" fill="#343843"/>
<path d="M22.6793 12.2188H5.52232C5.10893 12.2188 4.77344 12.5538 4.77344 12.9676C4.77344 13.3814 5.10853 13.7169 5.52232 13.7169H22.6793C23.0931 13.7169 23.4286 13.3814 23.4286 12.9676C23.4286 12.5538 23.0931 12.2188 22.6793 12.2188Z" fill="#343843"/>
<path d="M5.52232 1.8171H22.6793C23.0931 1.8171 23.4286 1.48161 23.4286 1.06822C23.4286 0.654826 23.0931 0.319336 22.6793 0.319336H5.52232C5.10893 0.319336 4.77344 0.654826 4.77344 1.06822C4.77344 1.48161 5.10853 1.8171 5.52232 1.8171Z" fill="#343843"/>
<path d="M22.6793 18.1689H5.52232C5.10893 18.1689 4.77344 18.504 4.77344 18.9178C4.77344 19.3316 5.10853 19.6671 5.52232 19.6671H22.6793C23.0931 19.6671 23.4286 19.3316 23.4286 18.9178C23.4286 18.504 23.0931 18.1689 22.6793 18.1689Z" fill="#343843"/>
<path d="M0.868426 0.35034C0.677757 0.54101 0.572266 0.800608 0.572266 1.06838C0.572266 1.33614 0.677757 1.59574 0.868426 1.78641C1.0591 1.97302 1.31874 2.08257 1.58646 2.08257C1.85017 2.08257 2.11383 1.97302 2.30044 1.78641C2.4911 1.59574 2.60061 1.3361 2.60061 1.06838C2.60061 0.800653 2.49106 0.54101 2.30044 0.35034C1.92722 -0.0269364 1.2457 -0.0269364 0.868426 0.35034Z" fill="#343843"/>
<path d="M1.58646 11.9531C1.02664 11.9531 0.572266 12.4075 0.572266 12.9674C0.572266 13.5317 1.02664 13.9816 1.58646 13.9816C2.14628 13.9816 2.60066 13.5317 2.60066 12.9674C2.60066 12.4075 2.14628 11.9531 1.58646 11.9531Z" fill="#343843"/>
<path d="M1.58646 6.00586C1.02664 6.00586 0.572266 6.46023 0.572266 7.02006C0.572266 7.57988 1.02664 8.03425 1.58646 8.03425C2.14628 8.03425 2.60066 7.57988 2.60066 7.02006C2.60066 6.46023 2.14628 6.00586 1.58646 6.00586Z" fill="#343843"/>
<path d="M0.868426 18.1999C0.677757 18.3906 0.572266 18.6503 0.572266 18.918C0.572266 19.1858 0.677757 19.4458 0.868426 19.636C1.05503 19.8227 1.31874 19.9322 1.58646 19.9322C1.85017 19.9322 2.11383 19.8227 2.30044 19.636C2.4911 19.4458 2.60061 19.1857 2.60061 18.918C2.60061 18.6503 2.49106 18.3907 2.30044 18.2C1.92316 17.8227 1.2457 17.8227 0.868426 18.1999Z" fill="#343843"/>
</svg>
