<svg width="24" height="22" viewBox="0 0 24 22" fill="none" xmlns="http://www.w3.org/2000/svg">
<path d="M22.697 7.31445H6.86419C6.46044 7.31445 6.13281 7.64213 6.13281 8.04583C6.13281 8.44958 6.46009 8.77721 6.86419 8.77721H22.6973C23.1011 8.77721 23.4283 8.44953 23.4283 8.04583C23.4284 7.64213 23.1011 7.31445 22.697 7.31445Z" fill="#343843"/>
<path d="M22.697 13.123H6.86419C6.46044 13.123 6.13281 13.4507 6.13281 13.8548C6.13281 14.2589 6.46009 14.5866 6.86419 14.5866H22.6973C23.1011 14.5866 23.4283 14.259 23.4283 13.8548C23.4283 13.4507 23.1011 13.123 22.697 13.123Z" fill="#343843"/>
<path d="M6.86419 2.96568H22.6973C23.1011 2.96568 23.4283 2.63805 23.4283 2.23431C23.4283 1.83061 23.101 1.50293 22.6969 1.50293H6.86419C6.46044 1.50293 6.13281 1.83061 6.13281 2.23431C6.13281 2.63801 6.46009 2.96568 6.86419 2.96568Z" fill="#343843"/>
<path d="M22.697 18.9355H6.86419C6.46044 18.9355 6.13281 19.2632 6.13281 19.6673C6.13281 20.0715 6.46009 20.3987 6.86419 20.3987H22.6973C23.1011 20.3987 23.4283 20.0714 23.4283 19.6673C23.4283 19.2632 23.1011 18.9355 22.697 18.9355Z" fill="#343843"/>
<path d="M2.27861 14.727C2.03652 14.727 1.93906 14.6466 1.91612 14.6232C1.70496 14.3027 1.27822 14.1977 0.94108 14.3923C0.590861 14.5939 0.470415 15.0412 0.671663 15.3911C0.718404 15.4731 1.16335 16.1902 2.27825 16.1902C2.80044 16.1902 3.26083 15.991 3.57463 15.6288C3.84404 15.3182 3.99261 14.9034 3.99261 14.4608C3.99261 13.92 3.75967 13.3681 3.33927 13.0147L3.67721 12.4462C3.8119 12.2204 3.81471 11.9399 3.68476 11.7109C3.55481 11.4818 3.31195 11.3408 3.04887 11.3408H1.4121C1.0084 11.3408 0.680726 11.6685 0.680726 12.0726C0.680726 12.4767 1.008 12.804 1.4121 12.804H1.76272L1.65018 12.9929C1.51549 13.2188 1.51268 13.4997 1.64264 13.7287C1.77259 13.9573 2.01544 14.0987 2.27852 14.0987C2.52298 14.0987 2.52973 14.4573 2.52973 14.4609C2.52973 14.5473 2.50673 14.6281 2.4699 14.6701C2.43745 14.7076 2.3729 14.727 2.27861 14.727Z" fill="#343843"/>
<path d="M1.62499 8.51517C1.13093 8.86066 0.570312 9.25248 0.570312 9.92681C0.570312 10.3309 0.897988 10.6582 1.30209 10.6582H3.24346C3.6472 10.6582 3.97443 10.3306 3.97443 9.92681C3.97443 9.52306 3.64716 9.19543 3.24305 9.19543H3.13926C3.58024 8.79883 3.97443 8.26557 3.97443 7.51201C3.97443 6.5734 3.21096 5.80957 2.27239 5.80957C1.33379 5.80957 0.570357 6.57345 0.570357 7.51201C0.570357 7.91611 0.898033 8.24339 1.30173 8.24339C1.70548 8.24339 2.03311 7.91611 2.03311 7.51201C2.03311 7.38009 2.14048 7.27273 2.27239 7.27273C2.40431 7.27273 2.51168 7.38009 2.51168 7.51201C2.51168 7.86817 2.16065 8.14035 1.62499 8.51517Z" fill="#343843"/>
<path d="M1.81651 2.89952L1.95361 2.76322V4.39477C1.95361 4.79852 2.28088 5.12615 2.68499 5.12615C3.08909 5.12615 3.41677 4.79852 3.41677 4.39437V1.00851C3.41677 0.713333 3.23927 0.447086 2.96668 0.333382C2.6945 0.220079 2.3799 0.281864 2.1703 0.489094L0.786791 1.85993C0.499964 2.14439 0.497955 2.60756 0.782014 2.89438C1.06692 3.18161 1.52969 3.18362 1.81651 2.89952Z" fill="#343843"/>
<path d="M3.29001 16.874C2.88627 16.874 2.55864 17.2013 2.55864 17.6054V18.849H2.16404L2.34944 17.7246C2.4152 17.3261 2.14538 16.9501 1.74681 16.8843C1.35061 16.8173 0.972268 17.0879 0.906108 17.4865L0.58004 19.4611C0.545174 19.6731 0.604995 19.8898 0.744056 20.0535C0.883117 20.2171 1.08718 20.3114 1.30191 20.3114H2.55864V20.9917C2.55864 21.3958 2.88591 21.723 3.29001 21.723C3.69372 21.723 4.02139 21.3958 4.02139 20.9917V17.6054C4.02139 17.2013 3.69372 16.874 3.29001 16.874Z" fill="#343843"/>
</svg>
