<svg width="26" height="22" viewBox="0 0 26 22" fill="none" xmlns="http://www.w3.org/2000/svg">
<path d="M12.4741 4.35836V2.38086C12.4733 2.03928 12.5668 1.70412 12.7444 1.41232C12.9219 1.12051 13.1766 0.883398 13.4803 0.727111C13.7847 0.571754 14.1258 0.502671 14.4667 0.52735C14.8076 0.552028 15.1352 0.669526 15.4141 0.867111L24.9953 7.70961C25.2339 7.88335 25.4281 8.11105 25.562 8.37412C25.6958 8.63719 25.7656 8.92819 25.7656 9.22336C25.7656 9.51853 25.6958 9.80953 25.562 10.0726C25.4281 10.3357 25.2339 10.5634 24.9953 10.7371L15.3703 17.5709C15.0933 17.7707 14.7664 17.8901 14.4258 17.9159C14.0852 17.9418 13.7441 17.8731 13.44 17.7175C13.136 17.5618 12.8808 17.3253 12.7026 17.0338C12.5245 16.7424 12.4302 16.4074 12.4303 16.0659V13.7384C10.6803 13.7821 6.36656 14.1584 3.85531 16.5909C2.74751 17.6791 2.07804 19.1364 1.97406 20.6859C1.96659 20.8008 1.93657 20.9131 1.88569 21.0164C1.83482 21.1197 1.7641 21.212 1.67756 21.2879C1.59103 21.3639 1.49038 21.4221 1.38136 21.4591C1.27235 21.4962 1.15709 21.5115 1.04219 21.504C0.92728 21.4965 0.81497 21.4665 0.711668 21.4156C0.608368 21.3647 0.516096 21.294 0.440126 21.2075C0.364157 21.121 0.305975 21.0203 0.268904 20.9113C0.231831 20.8023 0.216593 20.687 0.224062 20.5721C0.302813 14.6834 1.83406 10.2909 4.77406 7.49961C6.87072 5.5469 9.60981 4.42948 12.4741 4.35836Z" fill="#343843"/>
</svg>
