<svg width="20" height="16" viewBox="0 0 20 16" fill="none" xmlns="http://www.w3.org/2000/svg">
<path d="M10.0395 9.52357C10.8809 9.52357 11.5629 8.84152 11.5629 8.00017C11.5629 7.15881 10.8809 6.47676 10.0395 6.47676C9.19816 6.47676 8.51611 7.15881 8.51611 8.00017C8.51611 8.84152 9.19816 9.52357 10.0395 9.52357Z" fill="#2960FF"/>
<path d="M10.0394 3.54698C7.58405 3.54698 5.58643 5.54461 5.58643 8.00001C5.58643 10.4554 7.58405 12.453 10.0394 12.453C12.4948 12.453 14.4925 10.4554 14.4925 8.00001C14.4925 5.54461 12.4948 3.54698 10.0394 3.54698ZM10.0394 10.8906C8.44558 10.8906 7.14889 9.59388 7.14889 8.00001C7.14889 6.40613 8.44558 5.10945 10.0394 5.10945C11.6333 5.10945 12.93 6.40613 12.93 8.00001C12.93 9.59388 11.6333 10.8906 10.0394 10.8906Z" fill="#2960FF"/>
<path d="M19.4941 6.29479C19.0793 5.65783 17.9089 4.02263 16.0037 2.59817C14.0726 1.15422 12.0585 0.422028 10.0175 0.422028C7.97945 0.422028 5.96367 1.15223 4.02616 2.59227C2.11256 4.01454 0.932748 5.64771 0.514309 6.28385C-0.171436 7.32639 -0.171436 8.67362 0.514309 9.71617C0.932748 10.3523 2.11256 11.9855 4.02616 13.4078C5.96367 14.8478 7.97942 15.578 10.0175 15.578C13.1553 15.578 15.6784 13.8285 17.2425 12.3609C17.5571 12.0656 17.5729 11.5713 17.2776 11.2566C16.9823 10.9419 16.488 10.9262 16.1734 11.2214C14.8149 12.4961 12.6442 14.0156 10.0175 14.0156C6.22433 14.0156 3.07971 10.7734 1.81959 8.85757C1.47693 8.33663 1.47693 7.6635 1.81959 7.14256C3.07971 5.22677 6.22433 1.98457 10.0175 1.98457C13.8105 1.98457 16.9359 5.2299 18.1847 7.14748C18.522 7.66541 18.522 8.33471 18.1847 8.85265C17.9493 9.21421 18.0515 9.69816 18.4131 9.93363C18.7746 10.1691 19.2586 10.0669 19.4941 9.70527C20.1686 8.66937 20.1686 7.33065 19.4941 6.29479Z" fill="#2960FF"/>
</svg>
