<svg width="18" height="23" viewBox="0 0 18 23" fill="none" xmlns="http://www.w3.org/2000/svg">
<path d="M16 6C15.7348 6 15.4804 6.10536 15.2929 6.29289C15.1054 6.48043 15 6.73478 15 7V18.191C14.9713 18.6967 14.744 19.1706 14.3675 19.5094C13.991 19.8482 13.4959 20.0246 12.99 20H5.01C4.5041 20.0246 4.00898 19.8482 3.63251 19.5094C3.25603 19.1706 3.02869 18.6967 3 18.191V7C3 6.73478 2.89464 6.48043 2.70711 6.29289C2.51957 6.10536 2.26522 6 2 6C1.73478 6 1.48043 6.10536 1.29289 6.29289C1.10536 6.48043 1 6.73478 1 7V18.191C1.02854 19.2272 1.46658 20.2099 2.21818 20.9238C2.96978 21.6378 3.97367 22.0247 5.01 22H12.99C14.0263 22.0247 15.0302 21.6378 15.7818 20.9238C16.5334 20.2099 16.9715 19.2272 17 18.191V7C17 6.73478 16.8946 6.48043 16.7071 6.29289C16.5196 6.10536 16.2652 6 16 6Z" fill="white"/>
<path d="M17 3H13V1C13 0.734784 12.8946 0.48043 12.7071 0.292893C12.5196 0.105357 12.2652 0 12 0H6C5.73478 0 5.48043 0.105357 5.29289 0.292893C5.10536 0.48043 5 0.734784 5 1V3H1C0.734784 3 0.48043 3.10536 0.292893 3.29289C0.105357 3.48043 0 3.73478 0 4C0 4.26522 0.105357 4.51957 0.292893 4.70711C0.48043 4.89464 0.734784 5 1 5H17C17.2652 5 17.5196 4.89464 17.7071 4.70711C17.8946 4.51957 18 4.26522 18 4C18 3.73478 17.8946 3.48043 17.7071 3.29289C17.5196 3.10536 17.2652 3 17 3ZM7 3V2H11V3H7Z" fill="white"/>
<path d="M8 16V9C8 8.73478 7.89464 8.48043 7.7071 8.29289C7.51957 8.10536 7.26521 8 7 8C6.73478 8 6.48043 8.10536 6.29289 8.29289C6.10536 8.48043 6 8.73478 6 9V16C6 16.2652 6.10536 16.5196 6.29289 16.7071C6.48043 16.8946 6.73478 17 7 17C7.26521 17 7.51957 16.8946 7.7071 16.7071C7.89464 16.5196 8 16.2652 8 16Z" fill="white"/>
<path d="M12.002 16V9C12.002 8.73478 11.8966 8.48043 11.7091 8.29289C11.5215 8.10536 11.2672 8 11.002 8C10.7367 8 10.4824 8.10536 10.2948 8.29289C10.1073 8.48043 10.002 8.73478 10.002 9V16C10.002 16.2652 10.1073 16.5196 10.2948 16.7071C10.4824 16.8946 10.7367 17 11.002 17C11.2672 17 11.5215 16.8946 11.7091 16.7071C11.8966 16.5196 12.002 16.2652 12.002 16Z" fill="white"/>
</svg>
