<svg width="26" height="22" viewBox="0 0 26 22" fill="none" xmlns="http://www.w3.org/2000/svg">
<path d="M13.5259 4.35836V2.38086C13.5267 2.03928 13.4332 1.70412 13.2556 1.41232C13.0781 1.12051 12.8234 0.883398 12.5197 0.727111C12.2153 0.571754 11.8742 0.502671 11.5333 0.52735C11.1924 0.552028 10.8648 0.669526 10.5859 0.867111L1.00469 7.70961C0.766065 7.88335 0.571899 8.11105 0.438028 8.37412C0.304157 8.63719 0.234375 8.92819 0.234375 9.22336C0.234375 9.51853 0.304157 9.80953 0.438028 10.0726C0.571899 10.3357 0.766065 10.5634 1.00469 10.7371L10.6297 17.5709C10.9067 17.7707 11.2336 17.8901 11.5742 17.9159C11.9148 17.9418 12.2559 17.8731 12.56 17.7175C12.864 17.5618 13.1192 17.3253 13.2974 17.0338C13.4755 16.7424 13.5698 16.4074 13.5697 16.0659V13.7384C15.3197 13.7821 19.6334 14.1584 22.1447 16.5909C23.2525 17.6791 23.922 19.1364 24.0259 20.6859C24.0334 20.8008 24.0634 20.9131 24.1143 21.0164C24.1652 21.1197 24.2359 21.212 24.3224 21.2879C24.409 21.3639 24.5096 21.4221 24.6186 21.4591C24.7277 21.4962 24.8429 21.5115 24.9578 21.504C25.0727 21.4965 25.185 21.4665 25.2883 21.4156C25.3916 21.3647 25.4839 21.294 25.5599 21.2075C25.6358 21.121 25.694 21.0203 25.7311 20.9113C25.7682 20.8023 25.7834 20.687 25.7759 20.5721C25.6972 14.6834 24.1659 10.2909 21.2259 7.49961C19.1293 5.5469 16.3902 4.42948 13.5259 4.35836Z" fill="#343843"/>
</svg>
