<svg width="1136" height="1136" viewBox="0 0 1136 1136" fill="none" xmlns="http://www.w3.org/2000/svg">
<path d="M436.787 57.5912C507.741 -18.3265 628.134 -18.3265 699.088 57.5912V57.5912C734.477 95.4557 784.504 116.178 836.302 114.427V114.427C940.156 110.917 1025.29 196.048 1021.78 299.902V299.902C1020.03 351.7 1040.75 401.727 1078.61 437.116V437.116C1154.53 508.07 1154.53 628.463 1078.61 699.417V699.417C1040.75 734.806 1020.03 784.832 1021.78 836.63V836.63C1025.29 940.484 940.156 1025.62 836.302 1022.11V1022.11C784.504 1020.35 734.477 1041.08 699.088 1078.94V1078.94C628.134 1154.86 507.741 1154.86 436.787 1078.94V1078.94C401.398 1041.08 351.371 1020.35 299.573 1022.11V1022.11C195.719 1025.62 110.589 940.484 114.098 836.63V836.63C115.849 784.832 95.1271 734.806 57.2626 699.417V699.417C-18.6551 628.463 -18.6551 508.07 57.2626 437.116V437.116C95.1271 401.727 115.849 351.7 114.098 299.902V299.902C110.589 196.048 195.719 110.917 299.573 114.427V114.427C351.371 116.178 401.398 95.4557 436.787 57.5912V57.5912Z" fill="#D8FF3C"/>
</svg>
