<svg width="24" height="22" viewBox="0 0 24 22" fill="none" xmlns="http://www.w3.org/2000/svg">
<path d="M22.6732 1.37305C21.8073 0.497467 20.7652 0.0358887 19.6565 0.0358887C19.6392 0.0358887 19.6219 0.0359824 19.6047 0.0362168C18.548 0.0499043 17.5112 0.498967 16.6854 1.30058L16.6776 1.30812L5.95701 12.2076C4.88437 13.2915 4.88409 14.8652 5.95636 15.9494C6.47634 16.4751 7.13967 16.7646 7.82424 16.7646H7.82456C8.51743 16.7646 9.18511 16.4751 9.70787 15.9463L17.1176 8.37641C17.4796 8.00652 17.4733 7.41317 17.1033 7.05106C16.7335 6.689 16.1401 6.69533 15.778 7.06522L8.37155 14.6318C8.20678 14.7984 8.01249 14.8902 7.82424 14.8903C7.63903 14.8903 7.45894 14.8032 7.28897 14.6314C6.79561 14.1325 7.12481 13.6922 7.29127 13.524L17.9981 2.63848C19.0213 1.65139 20.3323 1.67169 21.3405 2.69112C22.5357 3.89956 22.2104 5.30975 21.3579 6.17131C20.9938 6.53919 20.9969 7.13258 21.3648 7.4967C21.7328 7.86083 22.3261 7.85759 22.6902 7.48977C23.5127 6.65858 23.9777 5.60183 23.9993 4.51437C24.0219 3.37616 23.551 2.26058 22.6732 1.37305Z" fill="#2960FF"/>
<path d="M19.7297 9.20313C19.358 8.84313 18.7646 8.85264 18.4045 9.2245L9.15411 18.7783C8.31668 19.6239 7.25716 20.0897 6.17022 20.0898H6.16966C5.0831 20.0898 4.05222 19.6283 3.18869 18.7552C1.16738 16.7115 1.73171 14.3112 3.18812 12.8382L12.4244 3.60399C12.7904 3.23804 12.7905 2.64465 12.4245 2.2786C12.0586 1.91255 11.4652 1.9125 11.0991 2.27846L1.86109 11.5144L1.85757 11.518C0.699102 12.6887 0.0401319 14.1648 0.00183493 15.6745C-0.0389933 17.2843 0.602211 18.8054 1.85603 20.0732C3.06208 21.2927 4.59395 21.9642 6.16966 21.9642H6.1705C7.76351 21.964 9.29768 21.2993 10.4904 20.0927L19.7511 10.5283C20.1112 10.1565 20.1016 9.56313 19.7297 9.20313Z" fill="#2960FF"/>
</svg>
