<svg width="466" height="325" viewBox="0 0 466 325" fill="none" xmlns="http://www.w3.org/2000/svg">
<g clip-path="url(#clip0)">
<path d="M20.7572 124.722C21.2028 152.17 31.4846 155.142 44.1111 152.279C58.5353 149.009 70.3743 138.758 76.2093 125.196L80.2334 115.843C82.9087 109.625 82.9988 102.601 80.4838 96.3165C77.9688 90.0322 73.0548 85.002 66.8228 82.3327H66.8228C63.737 81.011 60.4206 80.3086 57.0628 80.2658C53.705 80.2229 50.3716 80.8403 47.2529 82.0829C44.1343 83.3254 41.2915 85.1686 38.8868 87.5074C36.4821 89.8461 34.5626 92.6345 33.2379 95.7134C20.2889 100.789 17.7314 111.296 20.7572 124.722Z" fill="#2F2E41"/>
<path d="M101.946 69.4776L105.821 62.9343C106.294 62.1352 106.58 61.2397 106.657 60.3147C106.734 59.3897 106.6 58.4594 106.265 57.5936C105.93 56.7277 105.403 55.9488 104.723 55.3152C104.043 54.6816 103.228 54.2098 102.34 53.9353C101.402 53.6455 100.408 53.5835 99.4416 53.7546C98.4749 53.9257 97.5632 54.3248 96.7824 54.9188C96.0016 55.5127 95.3744 56.2842 94.9531 57.1691C94.5317 58.0539 94.3284 59.0264 94.3601 60.0055L94.5879 67.0391L76.375 116.841L86.3068 118.909L101.946 69.4776Z" fill="#9F616A"/>
<path d="M6.1277 192.247L1.3575 198.173C0.774993 198.897 0.364275 199.743 0.156163 200.647C-0.0519497 201.552 -0.0520554 202.492 0.155853 203.396C0.363761 204.301 0.774286 205.147 1.35663 205.871C1.93897 206.594 2.67801 207.177 3.51831 207.575C4.40522 207.995 5.37994 208.198 6.36123 208.166C7.34251 208.134 8.30195 207.869 9.15957 207.392C10.0172 206.915 10.7481 206.24 11.2915 205.424C11.8349 204.609 12.175 203.675 12.2834 202.701L13.0623 195.707L38.2002 149.003L28.6652 145.543L6.1277 192.247Z" fill="#9F616A"/>
<path d="M35.6016 241.546L36.3037 249.962L36.4684 251.925L83.1556 247.445C84.7649 247.264 86.3087 246.707 87.6615 245.818C89.0143 244.93 90.138 243.736 90.9412 242.333C91.7444 240.929 92.2045 239.357 92.2841 237.743C92.3636 236.129 92.0605 234.519 91.3991 233.044L76.3424 200.792L71.1414 189.652L48.604 184.463C30.0192 198.656 46.7403 214.319 67.7782 230.164C68.6017 230.787 69.4338 231.41 70.2746 232.032L35.6016 241.546Z" fill="#2F2E41"/>
<path d="M19.8702 270.688C20.4391 270.769 21.0193 270.703 21.5551 270.496C22.091 270.289 22.5647 269.948 22.9306 269.506L38.2022 251.06L37.3354 242.411L32.1282 239.294C31.7023 239.039 31.2258 238.88 30.7319 238.827C30.238 238.774 29.7385 238.829 29.2681 238.989C28.7977 239.148 28.3677 239.408 28.008 239.749C27.6483 240.091 27.3675 240.507 27.1851 240.968L17.2245 266.146C17.0385 266.616 16.9616 267.122 16.9997 267.626C17.0378 268.13 17.1899 268.619 17.4445 269.056C17.6991 269.493 18.0496 269.867 18.4697 270.15C18.8898 270.432 19.3686 270.616 19.8702 270.688Z" fill="#2F2E41"/>
<path opacity="0.2" d="M33.002 239.816L33.8688 250.195L36.3046 249.962L80.556 245.715C82.1653 245.534 83.7091 244.977 85.0619 244.088C86.4147 243.2 87.5384 242.006 88.3416 240.603C89.1448 239.2 89.6049 237.627 89.6845 236.013C89.7641 234.399 89.4608 232.789 88.7995 231.314L76.3433 203.491V200.792L71.1423 189.652L48.6048 184.463C30.0201 198.656 46.7411 214.319 67.779 230.164L67.675 230.303L33.002 239.816Z" fill="black"/>
<path d="M15.5343 267.228C16.1031 267.309 16.6833 267.243 17.2192 267.036C17.7551 266.829 18.2287 266.488 18.5947 266.046L33.8663 247.601L32.9995 238.952L27.7923 235.834C27.3664 235.579 26.8899 235.42 26.3959 235.367C25.902 235.314 25.4025 235.37 24.9321 235.529C24.4617 235.688 24.0318 235.948 23.6721 236.29C23.3124 236.631 23.0316 237.047 22.8492 237.508L12.8886 262.686C12.7026 263.156 12.6257 263.662 12.6638 264.166C12.7019 264.67 12.8539 265.159 13.1085 265.596C13.3631 266.033 13.7136 266.407 14.1337 266.69C14.5539 266.972 15.0327 267.156 15.5343 267.228Z" fill="#2F2E41"/>
<path d="M31.2676 238.087L32.1344 248.466L78.8216 243.985C80.4308 243.804 81.9746 243.247 83.3274 242.359C84.6803 241.471 85.8041 240.277 86.6076 238.874C87.4112 237.471 87.8717 235.899 87.9518 234.285C88.032 232.671 87.7294 231.061 87.0688 229.586L74.6089 201.761V186.193L44.27 181.004C24.9539 195.754 43.7743 212.094 65.9406 228.573L31.2676 238.087Z" fill="#2F2E41"/>
<path d="M60.7387 116.136C67.9197 116.136 73.7411 110.328 73.7411 103.163C73.7411 95.9979 67.9197 90.1895 60.7387 90.1895C53.5577 90.1895 47.7363 95.9979 47.7363 103.163C47.7363 110.328 53.5577 116.136 60.7387 116.136Z" fill="#9F616A"/>
<path d="M43.4023 124.786L61.6057 136.894L77.2086 133.435L68.5403 124.786V111.812L54.6711 110.947C54.3799 116.128 51.4047 120.869 43.4023 124.786Z" fill="#9F616A"/>
<path d="M40.8033 185.328L74.6095 189.653L82.4109 153.327C86.0352 143.684 83.9558 135.165 77.2457 127.558C76.9891 126.278 76.3054 125.122 75.3062 124.279C74.307 123.436 73.051 122.956 71.7431 122.916L68.5417 123.055C68.9039 134.526 60.4338 131.763 47.7379 122.19L46.2049 122.649C44.2231 123.243 42.5216 124.528 41.4118 126.27C40.302 128.013 39.8581 130.096 40.1613 132.138L41.5592 141.553C42.152 145.285 43.0728 148.958 44.311 152.53C47.777 162.865 46.5384 173.807 40.8033 185.328Z" fill="#2960FF"/>
<path d="M25.1992 146.408L40.8021 151.597L47.7367 126.515L45.3874 125.45C43.4396 124.566 41.228 124.456 39.2013 125.14C37.1746 125.824 35.4846 127.251 34.4742 129.133L25.1992 146.408Z" fill="#2960FF"/>
<path d="M71.1406 123.055L79.8091 132.569L90.2107 116.136L77.2082 109.217L71.1406 123.055Z" fill="#2960FF"/>
<path d="M45.5703 99.2704C53.741 102.345 62.4608 102.026 71.5751 99.2704V88.8916H45.5703V99.2704Z" fill="#2F2E41"/>
<path d="M451.094 277.433L442.13 281.16L382.37 199.918L339.045 282.65L327.84 280.414L360.708 166.378H398.804L451.094 277.433Z" fill="#2F2E41"/>
<path d="M463.12 296.385C462.623 296.52 462.104 296.556 461.593 296.49C461.082 296.425 460.589 296.259 460.143 296.002L441.238 285.142C440.728 284.849 440.292 284.443 439.965 283.954C439.637 283.466 439.427 282.909 439.35 282.327C439.272 281.745 439.331 281.152 439.52 280.596C439.709 280.039 440.024 279.534 440.44 279.119L442.13 277.433L451.093 276.688L464.797 289.813C465.295 290.291 465.658 290.892 465.848 291.555C466.037 292.217 466.047 292.919 465.877 293.587C465.706 294.255 465.361 294.866 464.877 295.357C464.393 295.849 463.786 296.203 463.12 296.385Z" fill="#2F2E41"/>
<path d="M316.56 299.366C317.057 299.502 317.576 299.537 318.086 299.472C318.597 299.406 319.09 299.24 319.537 298.984L338.441 288.124C338.951 287.831 339.387 287.424 339.715 286.936C340.042 286.448 340.253 285.891 340.33 285.308C340.407 284.726 340.349 284.134 340.16 283.577C339.971 283.021 339.656 282.515 339.239 282.1L337.55 280.414L328.586 279.669L314.883 292.795C314.384 293.272 314.022 293.873 313.832 294.536C313.642 295.199 313.632 295.9 313.802 296.568C313.973 297.236 314.318 297.847 314.802 298.339C315.287 298.83 315.893 299.185 316.56 299.366Z" fill="#2F2E41"/>
<path d="M335.308 47.8698L331.573 50.1058L323.833 37.5562C323.358 36.7855 323.075 35.912 323.009 35.0094C322.943 34.1068 323.096 33.2016 323.454 32.3701C323.812 31.5386 324.365 30.8052 325.067 30.2317C325.768 29.6583 326.598 29.2616 327.485 29.0752C328.275 28.9094 329.09 28.9139 329.877 29.0884C330.665 29.2629 331.406 29.6034 332.05 30.0869C332.695 30.5705 333.228 31.186 333.615 31.8921C334.002 32.5983 334.232 33.3788 334.292 34.1813L335.308 47.8698Z" fill="#FFB9B9"/>
<path d="M438.773 145.574L440.323 141.513L454.183 146.6C455.035 146.912 455.798 147.425 456.409 148.093C457.021 148.762 457.462 149.567 457.696 150.442C457.93 151.316 457.949 152.234 457.753 153.117C457.557 154.001 457.151 154.824 456.569 155.519C456.052 156.136 455.408 156.635 454.681 156.984C453.954 157.333 453.161 157.522 452.355 157.54C451.548 157.557 450.748 157.403 450.006 157.086C449.265 156.77 448.599 156.299 448.055 155.705L438.773 145.574Z" fill="#FFB9B9"/>
<path d="M380.129 92.5895C386.317 92.5895 391.334 87.5841 391.334 81.4095C391.334 75.235 386.317 70.2295 380.129 70.2295C373.94 70.2295 368.924 75.235 368.924 81.4095C368.924 87.5841 373.94 92.5895 380.129 92.5895Z" fill="#FFB9B9"/>
<path d="M389.839 105.26H374.152V88.1178L387.598 86.627L389.839 105.26Z" fill="#FFB9B9"/>
<path d="M401.046 170.85H358.467C359.968 147.146 361.157 124.238 358.467 111.223L360.943 99.366C361.286 97.7231 362.236 96.2691 363.604 95.2933C364.973 94.3175 366.659 93.8913 368.328 94.0995L374.154 94.826C378.099 101.747 382.867 101.68 388.347 95.5714H395.364C396.299 95.5714 397.226 95.7576 398.088 96.1191C398.951 96.4806 399.732 97.0101 400.387 97.6767C401.042 98.3432 401.557 99.1335 401.903 100.001C402.248 100.869 402.416 101.796 402.397 102.73C404.226 111.081 404.834 119.653 404.203 128.178L401.046 170.85Z" fill="#3F3D56"/>
<path d="M329.334 47.8698L335.31 44.8887L367.431 97.8076L358.467 111.223L329.334 47.8698Z" fill="#3F3D56"/>
<path d="M438.858 147.695L443.965 143.397L416.829 105.456C414.174 101.744 410.514 98.8637 406.278 97.1523C402.041 95.441 397.404 94.9695 392.909 95.793L392.053 95.9498L402.314 113.867L415.829 124.076L438.858 147.695Z" fill="#3F3D56"/>
<path d="M393.087 74.8101C393.087 74.8101 395.181 70.2141 389.737 68.125C389.737 68.125 385.131 60.6042 375.918 65.6181C375.918 65.6181 369.637 68.125 369.637 74.8101C369.637 81.4953 367.543 82.7488 367.543 82.7488C367.543 82.7488 370.661 79.5571 371.498 77.0502C372.336 74.5433 378.849 73.9745 381.362 76.4814C383.874 78.9883 390.156 78.5705 390.156 78.5705L389.737 87.7626C389.737 87.7626 391.831 82.3309 392.668 82.3309C393.506 82.3309 394.343 74.8101 393.087 74.8101Z" fill="#2F2E41"/>
<path d="M392.053 325C429.917 325 460.613 323.405 460.613 321.437C460.613 319.469 429.917 317.874 392.053 317.874C354.188 317.874 323.492 319.469 323.492 321.437C323.492 323.405 354.188 325 392.053 325Z" fill="#E6E6E6"/>
<path d="M49.741 323.32C69.7552 323.32 85.98 322.477 85.98 321.437C85.98 320.397 69.7552 319.554 49.741 319.554C29.7267 319.554 13.502 320.397 13.502 321.437C13.502 322.477 29.7267 323.32 49.741 323.32Z" fill="#E6E6E6"/>
<path d="M326.618 62.6858L106.31 82.3868C105.229 82.4822 104.153 82.1457 103.32 81.4509C102.486 80.7562 101.963 79.76 101.865 78.6809L96.9671 24.1534C96.8715 23.074 97.2088 22.0009 97.905 21.1694C98.6013 20.3378 99.5997 19.8158 100.681 19.7178L320.989 0.0168961C322.071 -0.0785591 323.147 0.257995 323.98 0.952731C324.813 1.64747 325.337 2.64366 325.435 3.72277L330.333 58.2503C330.428 59.3296 330.091 60.4028 329.395 61.2343C328.698 62.0658 327.7 62.5878 326.618 62.6858Z" fill="#2960FF"/>
<path d="M132.053 65.663C141.555 65.663 149.257 57.9777 149.257 48.4975C149.257 39.0173 141.555 31.332 132.053 31.332C122.552 31.332 114.85 39.0173 114.85 48.4975C114.85 57.9777 122.552 65.663 132.053 65.663Z" fill="white"/>
<path d="M170.604 33.561C169.848 33.6301 169.15 33.9958 168.663 34.5778C168.177 35.1598 167.942 35.9106 168.01 36.6654C168.077 37.4202 168.442 38.1173 169.025 38.6037C169.607 39.0902 170.359 39.3262 171.116 39.26L305.748 27.2205C306.124 27.1875 306.489 27.081 306.823 26.907C307.157 26.733 307.454 26.495 307.696 26.2066C307.937 25.9182 308.12 25.585 308.233 25.2262C308.345 24.8673 308.386 24.4898 308.352 24.1153C308.319 23.7408 308.211 23.3765 308.037 23.0434C307.862 22.7103 307.623 22.4148 307.333 22.1739C307.044 21.933 306.71 21.7514 306.35 21.6394C305.99 21.5275 305.612 21.4875 305.236 21.5216L170.604 33.561Z" fill="white"/>
<path d="M172.14 50.6577C171.765 50.6905 171.399 50.7969 171.065 50.9709C170.731 51.1448 170.434 51.3828 170.192 51.6712C169.95 51.9596 169.768 52.2929 169.655 52.6518C169.542 53.0107 169.501 53.3883 169.535 53.763C169.569 54.1377 169.676 54.502 169.851 54.8353C170.026 55.1685 170.265 55.464 170.554 55.7049C170.844 55.9458 171.178 56.1274 171.538 56.2392C171.898 56.351 172.277 56.3909 172.652 56.3566L307.285 44.3172C307.66 44.2842 308.025 44.1776 308.359 44.0036C308.694 43.8297 308.99 43.5916 309.232 43.3032C309.474 43.0148 309.656 42.6817 309.769 42.3228C309.882 41.964 309.922 41.5865 309.889 41.212C309.855 40.8374 309.748 40.4732 309.573 40.1401C309.398 39.8069 309.159 39.5115 308.87 39.2706C308.58 39.0297 308.246 38.8481 307.886 38.7361C307.526 38.6242 307.148 38.5841 306.773 38.6182L172.14 50.6577Z" fill="white"/>
</g>
<defs>
<clipPath id="clip0">
<rect width="466" height="325" fill="white"/>
</clipPath>
</defs>
</svg>
