<svg width="102" height="42" viewBox="0 0 102 42" fill="none" xmlns="http://www.w3.org/2000/svg">
<path d="M42.6526 12.8324H40.0868V8.28217H48.2841V17.2518C47.1845 18.0702 45.9182 18.6921 44.452 19.1177C42.9859 19.5433 41.453 19.7724 39.8869 19.7724C36.7212 19.7724 34.2887 18.9213 32.5893 17.2518C30.8898 15.5495 30.0234 13.1598 30.0234 9.98443C30.0234 6.80906 30.8565 4.38661 32.5559 2.61888C34.2554 0.851151 36.6213 -0.0327148 39.6203 -0.0327148C41.9862 -0.0327148 43.9189 0.523793 45.4184 1.63681C46.9179 2.74983 47.7843 4.32114 48.1175 6.35076L41.9862 6.87453C41.8196 6.21982 41.553 5.72878 41.1865 5.43416C40.8199 5.13954 40.2867 5.00859 39.587 5.00859C38.4207 5.00859 37.5876 5.40142 37.0545 6.15435C36.5213 6.90727 36.2881 8.11849 36.2881 9.82075C36.2881 11.5885 36.588 12.8652 37.1878 13.6181C37.7876 14.371 38.8206 14.7639 40.2201 14.7639C41.2198 14.7639 42.0528 14.6329 42.6526 14.3383V12.8324Z" fill="#343843"/>
<path d="M64.8121 14.7311C64.5122 16.3679 63.8124 17.6446 62.6461 18.463C61.4798 19.3141 59.9137 19.7397 57.9476 19.7397C55.5484 19.7397 53.7157 19.1177 52.4494 17.9065C51.1832 16.6625 50.55 14.8948 50.55 12.5378C50.55 10.1808 51.1832 8.31488 52.4828 6.97271C53.7823 5.63055 55.5817 4.97583 57.881 4.97583C60.0803 4.97583 61.813 5.59781 63.046 6.87451C64.2789 8.1512 64.912 9.8862 64.912 12.145V13.5526H55.9483C55.9816 14.371 56.1482 14.9602 56.4481 15.3203C56.748 15.6804 57.2145 15.8768 57.881 15.8768C58.7807 15.8768 59.3472 15.484 59.5804 14.7311H64.8121ZM59.7137 10.7701C59.6804 10.0826 59.5138 9.55884 59.2472 9.26422C58.9806 8.96959 58.5474 8.80592 57.981 8.80592C56.748 8.80592 56.0816 9.46063 55.9816 10.7701H59.7137Z" fill="#343843"/>
<path d="M77.7744 18.9214C76.5415 19.3142 75.2753 19.5433 74.009 19.5433C72.043 19.5433 70.6768 19.1178 69.8104 18.2339C68.9773 17.35 68.5441 15.9097 68.5441 13.8801V9.78809H66.2449V5.36876H68.5441V1.76782H74.3089V5.36876H77.2413V9.78809H74.3089V13.5527C74.3089 14.0437 74.4422 14.4038 74.6754 14.633C74.9087 14.8621 75.2752 14.9931 75.7751 14.9931C76.175 14.9931 76.6081 14.9276 77.0747 14.8294L77.7744 18.9214Z" fill="#343843"/>
<path d="M41.753 41.2799V34.2089H36.6546V41.2799H30.5566V22.4568H36.6546V28.9385H41.753V22.4568H47.851V41.2799H41.753Z" fill="#343843"/>
<path d="M50.7832 26.025V22.4568H56.5147V26.025H50.7832ZM50.7832 41.2799V27.3672H56.5147V41.2799H50.7832Z" fill="#343843"/>
<path d="M59.2139 41.2798V27.3671H64.812V28.9057C65.7451 27.7272 67.0446 27.1379 68.7108 27.1379C69.2439 27.1379 69.7104 27.2034 70.177 27.3016L69.5438 31.9828C68.9773 31.8846 68.4442 31.8192 67.9443 31.8192C67.1113 31.8192 66.4115 31.9828 65.9117 32.3102C65.3119 32.703 65.012 33.3577 65.012 34.3071V41.3125H59.2139V41.2798Z" fill="#343843"/>
<path d="M85.1055 36.6969C84.8056 38.3337 84.1058 39.6104 82.9395 40.4288C81.7733 41.2799 80.2071 41.7055 78.2411 41.7055C75.8419 41.7055 74.0091 41.0835 72.7429 39.8723C71.4766 38.6283 70.8435 36.8606 70.8435 34.5036C70.8435 32.1466 71.4766 30.2807 72.7762 28.9385C74.0758 27.5964 75.8752 26.9417 78.1744 26.9417C80.3737 26.9417 82.1065 27.5636 83.3394 28.8403C84.5724 30.117 85.2055 31.852 85.2055 34.1108V35.5184H76.2417C76.2751 36.3368 76.4417 36.9261 76.7416 37.2862C77.0415 37.6462 77.508 37.8427 78.1744 37.8427C79.0741 37.8427 79.6406 37.4498 79.8739 36.6969H85.1055ZM79.9739 32.7359C79.9405 32.0484 79.7739 31.5247 79.5073 31.23C79.2408 30.9354 78.8076 30.7717 78.2411 30.7717C77.0082 30.7717 76.3417 31.4264 76.2417 32.7359H79.9739Z" fill="#343843"/>
<path d="M96.4683 41.2799V39.905C95.5353 41.1162 94.2357 41.7054 92.6029 41.7054C90.8368 41.7054 89.4706 41.0834 88.5043 39.8395C87.5379 38.5955 87.0381 36.8278 87.0381 34.5363C87.0381 32.1793 87.5712 30.3134 88.6042 28.9712C89.6372 27.629 91.0701 26.9416 92.8362 26.9416C93.5693 26.9416 94.2357 27.0725 94.8355 27.3344C95.4353 27.5963 95.9018 27.9564 96.2351 28.4474V22.4568H101.967V41.2799H96.4683ZM96.2351 34.1107C96.2351 33.1614 96.1018 32.4739 95.8352 32.0156C95.5686 31.5901 95.1354 31.3937 94.569 31.3937C93.9691 31.3937 93.5026 31.6228 93.2361 32.0811C92.9362 32.5394 92.8029 33.2596 92.8029 34.2417C92.8029 35.2237 92.9362 35.9439 93.2361 36.435C93.536 36.8933 93.9691 37.1552 94.569 37.1552C95.1021 37.1552 95.502 36.9587 95.8019 36.5332C96.1018 36.0749 96.2351 35.3874 96.2351 34.4708V34.1107Z" fill="#343843"/>
<path d="M9.99673 21.6383H0C0 10.3772 9.29696 1.2439 20.7266 1.2439H22.3927V11.0646H20.7266C14.7952 11.0646 9.99673 15.8113 9.99673 21.6383Z" fill="#2960FF"/>
<path d="M1.63269 41.9999H0.0998535V32.1791H1.63269C7.56408 32.1791 12.3958 27.4324 12.3958 21.6055H22.3926C22.3926 32.8666 13.0623 41.9999 1.63269 41.9999Z" fill="#2960FF"/>
</svg>
