<svg width="32" height="30" viewBox="0 0 32 30" fill="none" xmlns="http://www.w3.org/2000/svg">
<path d="M27 0.125H5C2.24292 0.125 0 2.36792 0 5.125V22.625C0 25.3821 2.24292 27.625 5 27.625H16.8425H16.8447H16.8462H18.25C18.9404 27.625 19.5 27.0654 19.5 26.375C19.5 25.6846 18.9404 25.125 18.25 25.125H17.4585L14.5845 21.3965L23.6624 9.8501L29.3596 16.5591C29.5972 16.8389 29.9456 17 30.3125 17H30.75C31.4404 17 32 16.4404 32 15.75V5.125C32 2.36792 29.7571 0.125 27 0.125ZM29.5 12.8621L24.5779 7.06592C24.335 6.77979 23.9773 6.61694 23.6013 6.62524C23.2263 6.63232 22.8743 6.80762 22.6423 7.10254L13.01 19.354L9.73999 15.1118C9.50342 14.8049 9.1377 14.625 8.75 14.625C8.74976 14.625 8.74951 14.625 8.74927 14.625C8.36157 14.6252 7.99561 14.8054 7.75928 15.113L5.0083 18.6892C4.5874 19.2363 4.6897 20.0212 5.23682 20.4421C5.78418 20.863 6.56885 20.7607 6.98975 20.2134L8.75098 17.9238L14.302 25.125H5C3.62158 25.125 2.5 24.0034 2.5 22.625V5.125C2.5 3.74658 3.62158 2.625 5 2.625H27C28.3784 2.625 29.5 3.74658 29.5 5.125V12.8621ZM8.75 4.625C6.68213 4.625 5 6.30713 5 8.375C5 10.4429 6.68213 12.125 8.75 12.125C10.8179 12.125 12.5 10.4429 12.5 8.375C12.5 6.30713 10.8179 4.625 8.75 4.625ZM8.75 9.625C8.06079 9.625 7.5 9.06421 7.5 8.375C7.5 7.68579 8.06079 7.125 8.75 7.125C9.43921 7.125 10 7.68579 10 8.375C10 9.06421 9.43921 9.625 8.75 9.625ZM31.634 21.384L28.4553 24.5625L31.6338 27.741C32.1221 28.2292 32.1221 29.0208 31.6338 29.5088C31.3899 29.7529 31.0698 29.875 30.75 29.875C30.4302 29.875 30.1101 29.7529 29.866 29.509L26.6875 26.3303L23.509 29.5088C23.2649 29.7529 22.9448 29.875 22.625 29.875C22.3052 29.875 21.9851 29.7529 21.741 29.509C21.2529 29.0208 21.2529 28.2292 21.741 27.7412L24.9197 24.5625L21.7412 21.384C21.2529 20.8958 21.2529 20.1042 21.7412 19.6162C22.2292 19.1279 23.0208 19.1279 23.509 19.6162L26.6875 22.7947L29.866 19.6162C30.3542 19.1279 31.1458 19.1279 31.6338 19.6162C32.1221 20.1042 32.1221 20.8958 31.634 21.384Z" fill="#C8CFE2"/>
</svg>
