<svg width="24" height="24" viewBox="0 0 24 24" fill="none" xmlns="http://www.w3.org/2000/svg">
<path d="M23.3946 0.605659C22.8436 0.0541462 22.0405 -0.13903 21.2992 0.101754L1.42694 6.55145C0.647643 6.8045 0.106201 7.46752 0.0137332 8.28179C-0.0787349 9.09624 0.300659 9.86382 1.0036 10.2851C1.05707 10.3172 1.11365 10.3437 1.17261 10.3646L7.25719 12.5185V15.5018C7.25719 16.0196 7.67686 16.4393 8.19469 16.4393H11.3454L13.6276 22.8291C13.6481 22.8866 13.6743 22.9421 13.7058 22.9946C14.0846 23.6287 14.7449 23.9999 15.4676 23.9999C15.5469 23.9999 15.6269 23.9955 15.7073 23.9863C16.5216 23.8946 17.1848 23.3534 17.4382 22.5739L18.2521 20.0705C18.4121 19.5781 18.1426 19.0491 17.6502 18.8891C17.1579 18.7289 16.6289 18.9984 16.4688 19.4908L15.6551 21.9942C15.6302 22.0707 15.5771 22.1141 15.4973 22.1231C15.4378 22.13 15.3885 22.1145 15.3503 22.0775L13.0292 15.5793L17.5753 7.69238C17.7846 7.32928 17.7275 6.87115 17.4353 6.57067C17.143 6.27001 16.6867 6.20007 16.3178 6.39929L8.10753 10.8304L1.92169 8.64086C1.88525 8.60241 1.87005 8.55297 1.87683 8.49328C1.88598 8.41308 1.92938 8.35979 2.00573 8.33507L21.8779 1.8852C21.9505 1.86176 22.0145 1.87714 22.0686 1.93116C22.1228 1.98554 22.1383 2.05017 22.1145 2.12342L17.9937 14.8C17.8335 15.2923 18.1031 15.8213 18.5954 15.9814C19.0878 16.1414 19.6168 15.8719 19.7768 15.3795L23.8976 2.70313C24.1389 1.961 23.9461 1.15735 23.3946 0.605659ZM11.4501 14.5643H9.13218V12.4082L14.3009 9.61846L11.4501 14.5643Z" fill="#2960FF"/>
</svg>
