<svg width="422" height="272" viewBox="0 0 422 272" fill="none" xmlns="http://www.w3.org/2000/svg">
<path opacity="0.1" d="M243.488 43.7983C218.308 42.9035 194.327 34.7761 171.443 25.9017C148.559 17.0273 125.862 7.15305 101.285 2.44157C85.4782 -0.589179 67.3989 -1.01714 54.6653 7.45652C42.4062 15.6267 38.4457 29.6911 36.3176 42.7556C34.7147 52.5832 33.7732 62.9243 38.1617 72.1255C41.2119 78.5139 46.6197 83.8828 50.3624 90.0027C63.3839 111.292 54.179 137.545 40.0719 158.333C33.4581 168.086 25.7743 177.397 20.666 187.769C15.5578 198.141 13.1962 210.042 17.6664 220.632C22.0938 231.137 32.6488 239.011 44.0831 244.556C67.3056 255.815 94.6598 259.04 121.353 260.865C180.422 264.907 239.803 263.156 299.029 261.406C320.948 260.756 342.961 260.098 364.522 256.71C376.497 254.827 388.857 251.839 397.552 244.629C408.586 235.475 411.321 219.971 403.925 208.494C391.522 189.239 357.239 184.458 348.559 163.791C343.789 152.419 348.687 139.748 355.624 129.2C370.502 106.573 395.436 86.7191 396.747 60.8507C397.65 43.0863 385.663 25.2948 367.128 16.8873C347.703 8.07512 320.761 9.18393 306.436 23.7697C291.66 38.7717 265.722 44.5492 243.488 43.7983Z" fill="#2960FF"/>
<path d="M60.6221 271.777C76.3526 271.777 89.1046 269.325 89.1046 266.3C89.1046 263.274 76.3526 260.822 60.6221 260.822C44.8917 260.822 32.1396 263.274 32.1396 266.3C32.1396 269.325 44.8917 271.777 60.6221 271.777Z" fill="#2960FF"/>
<path d="M60.1537 268.317C61.9843 268.317 63.4684 266.373 63.4684 263.975C63.4684 261.577 61.9843 259.633 60.1537 259.633C58.323 259.633 56.8389 261.577 56.8389 263.975C56.8389 266.373 58.323 268.317 60.1537 268.317Z" fill="#3F3D56"/>
<path d="M60.1537 263.011C61.9843 263.011 63.4684 261.067 63.4684 258.669C63.4684 256.271 61.9843 254.327 60.1537 254.327C58.323 254.327 56.8389 256.271 56.8389 258.669C56.8389 261.067 58.323 263.011 60.1537 263.011Z" fill="#3F3D56"/>
<path d="M60.1537 257.701C61.9843 257.701 63.4684 255.757 63.4684 253.359C63.4684 250.961 61.9843 249.017 60.1537 249.017C58.323 249.017 56.8389 250.961 56.8389 253.359C56.8389 255.757 58.323 257.701 60.1537 257.701Z" fill="#3F3D56"/>
<path d="M60.1537 252.398C61.9843 252.398 63.4684 250.454 63.4684 248.056C63.4684 245.658 61.9843 243.714 60.1537 243.714C58.323 243.714 56.8389 245.658 56.8389 248.056C56.8389 250.454 58.323 252.398 60.1537 252.398Z" fill="#3F3D56"/>
<path d="M60.1537 247.092C61.9843 247.092 63.4684 245.148 63.4684 242.75C63.4684 240.352 61.9843 238.408 60.1537 238.408C58.323 238.408 56.8389 240.352 56.8389 242.75C56.8389 245.148 58.323 247.092 60.1537 247.092Z" fill="#3F3D56"/>
<path d="M72.5666 195.824C73.0209 195.248 73.4343 194.641 73.8038 194.007L65.089 192.576L74.5118 192.646C75.4165 190.679 75.9101 188.548 75.9622 186.384C76.0144 184.22 75.6241 182.067 74.8153 180.059L62.175 186.619L73.8466 178.06C72.7532 176.174 71.2835 174.533 69.5289 173.24C67.7743 171.947 65.7724 171.029 63.6476 170.542C61.5229 170.056 59.3208 170.012 57.1785 170.414C55.0361 170.816 52.9993 171.654 51.1948 172.876C49.3903 174.099 47.8567 175.68 46.6894 177.521C45.5221 179.361 44.7462 181.423 44.4098 183.576C44.0734 185.73 44.1839 187.93 44.7342 190.039C45.2846 192.148 46.2631 194.121 47.6089 195.836C46.903 196.735 46.2952 197.707 45.7959 198.735L57.1095 204.61L45.0489 200.563C44.2005 203.066 43.9903 205.742 44.4373 208.346C44.8843 210.951 45.9745 213.403 47.6089 215.48C45.7656 217.823 44.6189 220.638 44.2998 223.602C43.9807 226.566 44.5022 229.561 45.8046 232.242C47.1069 234.924 49.1377 237.185 51.6645 238.767C54.1914 240.349 57.1124 241.188 60.0936 241.188C63.0747 241.188 65.9958 240.349 68.5226 238.767C71.0495 237.185 73.0802 234.924 74.3826 232.242C75.6849 229.561 76.2064 226.566 75.8873 223.602C75.5682 220.638 74.4215 217.823 72.5782 215.48C74.7809 212.68 75.9785 209.221 75.9785 205.658C75.9785 202.095 74.7809 198.636 72.5782 195.836L72.5666 195.824Z" fill="#2960FF"/>
<path opacity="0.1" d="M44.2086 205.644C44.2039 209.207 45.402 212.667 47.6089 215.464C45.7656 217.807 44.6189 220.622 44.2998 223.586C43.9807 226.55 44.5022 229.544 45.8046 232.226C47.1069 234.908 49.1376 237.169 51.6645 238.751C54.1914 240.333 57.1124 241.172 60.0936 241.172C63.0747 241.172 65.9958 240.333 68.5226 238.751C71.0495 237.169 73.0802 234.908 74.3826 232.226C75.6849 229.544 76.2064 226.55 75.8873 223.586C75.5682 220.622 74.4215 217.807 72.5782 215.464C74.6947 212.768 44.2086 203.866 44.2086 205.644Z" fill="black"/>
<path d="M198.615 200.197C198.857 203.309 200.055 206.53 202.576 208.366C205.097 210.203 209.108 210.168 211.034 207.701C211.68 206.775 212.156 205.741 212.438 204.647C214.06 199.52 215.212 193.91 213.434 188.833C209.423 188.572 204.774 186.685 201.763 190C199.331 192.7 198.335 196.598 198.615 200.197Z" fill="#3F3D56"/>
<path d="M217.245 168.831C216.712 173.355 215.806 177.861 215.899 182.416C215.934 184.175 216.121 185.918 216.125 187.684C216.132 192.271 214.924 196.777 212.623 200.745C212.381 201.211 212.057 201.63 211.666 201.982C210.744 202.729 209.355 202.667 208.32 202.095C207.309 201.466 206.488 200.574 205.943 199.515C203.044 194.551 202.963 188.517 201.815 182.887C200.936 178.58 199.395 174.406 198.839 170.049C198.477 167.243 198.531 164.384 197.955 161.614C197.78 160.777 197.29 159.521 196.967 158.287C196.672 157.186 196.508 156.105 196.812 155.362C197.43 153.841 199.457 154.432 200.776 154.525C205.421 154.87 210.085 154.858 214.728 154.49C215.187 154.455 215.709 154.436 216.032 154.763C216.172 154.928 216.278 155.12 216.343 155.327C216.712 156.338 216.995 157.38 217.187 158.439C217.829 161.828 217.65 165.38 217.245 168.831Z" fill="#FABDBD"/>
<path opacity="0.1" d="M209.101 202.093C208.09 201.464 207.268 200.573 206.723 199.514C203.824 194.55 203.742 188.516 202.594 182.886C201.715 178.579 200.174 174.405 199.617 170.048C199.255 167.243 199.31 164.383 198.734 161.613C198.559 160.777 198.069 159.52 197.746 158.287C197.45 157.186 197.286 156.104 197.59 155.361C197.719 155.057 197.936 154.797 198.213 154.617C198.491 154.437 198.816 154.344 199.147 154.35C198.162 154.284 197.201 154.4 196.812 155.361C196.508 156.104 196.672 157.186 196.967 158.287C197.29 159.52 197.781 160.777 197.956 161.613C198.532 164.383 198.477 167.243 198.839 170.048C199.396 174.409 200.937 178.583 201.816 182.886C202.964 188.516 203.046 194.558 205.945 199.514C206.489 200.573 207.311 201.464 208.323 202.093C208.944 202.437 209.656 202.581 210.362 202.506C209.919 202.448 209.492 202.308 209.101 202.093Z" fill="black"/>
<path d="M231.956 192.688C229.622 197.357 230.011 203.971 230.011 203.971C230.4 219.533 224.176 252.213 224.176 252.213H218.729C218.729 252.213 217.951 216.031 218.729 212.919C219.508 209.806 218.34 198.913 217.173 183.74C216.306 172.457 218.667 162.233 219.935 157.747C220.371 156.191 220.675 155.339 220.675 155.339C220.675 155.339 229.622 142.111 234.68 148.336C235.847 149.783 236.465 152.705 236.679 156.393C237.372 168.563 233.746 189.105 231.956 192.688Z" fill="#FABDBD"/>
<path opacity="0.1" d="M236.679 156.391C236.465 152.703 235.855 149.777 234.68 148.333C233.551 146.948 232.229 146.528 230.859 146.711C231.92 146.887 232.872 147.469 233.512 148.333C234.68 149.781 235.298 152.703 235.512 156.391C236.205 168.561 232.579 189.103 230.789 192.687C228.455 197.355 228.844 203.97 228.844 203.97C229.233 219.532 223.008 252.214 223.008 252.214H224.175C224.175 252.214 230.4 219.532 230.011 203.97C230.011 203.97 229.622 197.355 231.956 192.687C233.746 189.103 237.372 168.561 236.679 156.391Z" fill="black"/>
<path d="M215.889 250.793C215.454 251.134 215.079 251.544 214.777 252.006C214.08 253.322 215.068 254.894 216.126 255.94C217.184 256.987 218.46 258.107 218.46 259.598C218.46 260.796 217.553 261.823 216.538 262.461C215.994 262.804 215.309 263.24 215.422 263.885C215.462 264.049 215.532 264.203 215.628 264.341C216.499 265.675 218.044 266.457 219.607 266.753C221.17 267.049 222.784 266.92 224.375 266.792C224.613 266.8 224.846 266.72 225.028 266.566C225.144 266.411 225.205 266.223 225.203 266.029C225.281 265.204 225.231 264.333 225.592 263.59C226.098 262.574 227.261 262.057 227.926 261.146C228.859 259.901 228.731 258.17 228.377 256.656C227.599 253.361 225.869 249.602 223.271 247.318C220.26 244.695 217.9 248.898 215.889 250.793Z" fill="#3F3D56"/>
<path d="M227.68 54.6933C229.851 51.4486 229.286 46.9123 227.069 43.6831C224.851 40.454 221.288 38.4231 217.611 37.112C212.655 35.3457 207.188 34.7427 202.096 36.0694C198.042 37.1237 194.4 39.3296 190.58 41.0337C183.821 44.0494 176.472 45.5118 169.073 45.3133C160.86 45.0837 151.861 42.9789 144.971 47.4686C132.358 55.6737 137.968 78.0053 126.036 87.1519C122.819 89.6185 118.768 90.6962 115.189 92.5986C111.61 94.5011 108.217 97.8119 108.303 101.866C108.342 103.811 109.198 105.667 110.248 107.313C114.722 114.405 123.087 118.794 131.463 118.712C139.84 118.63 148.014 114.175 152.842 107.32C154.052 105.605 155.118 103.694 156.872 102.551C160.374 100.255 164.988 101.862 169.166 102.204C178.468 102.963 187.775 95.9795 189.627 86.8173C190.405 82.9074 190.268 78.2348 193.416 75.7799C195.956 73.7996 199.532 74.2237 202.753 73.8852C208.643 73.2744 213.293 69.6057 216.491 64.8125C217.957 62.6144 218.128 59.9883 220.128 58.257C222.284 56.3546 225.618 57.759 227.68 54.6933Z" fill="#3F3D56"/>
<path opacity="0.1" d="M161.287 46.0606C164.698 46.1542 168.111 45.8935 171.468 45.2827C170.542 45.3099 169.609 45.3099 168.679 45.2827C162.232 45.1037 155.303 43.7735 149.288 45.376C153.257 45.4149 157.361 45.9517 161.287 46.0606Z" fill="black"/>
<path opacity="0.1" d="M226.685 43.6701C224.471 40.4565 220.903 38.4101 217.227 37.099C212.27 35.3327 206.804 34.7297 201.711 36.0563C201.594 36.0836 201.481 36.1186 201.369 36.1497C204.26 36.3109 207.112 36.8928 209.835 37.8771C213.511 39.1882 217.079 41.2346 219.293 44.4482C221.506 47.6618 222.074 52.2292 219.904 55.4584C217.841 58.5358 214.507 57.1313 212.325 59.026C210.325 60.7573 210.154 63.3833 208.687 65.5815C205.936 69.6938 202.108 72.9735 197.342 74.2185C198.98 74.0239 200.707 74.0473 202.341 73.8761C208.232 73.2653 212.881 69.5965 216.079 64.8034C217.546 62.6052 217.717 59.9792 219.717 58.2479C221.899 56.3532 225.234 57.7577 227.296 54.6803C229.471 51.4356 228.906 46.8837 226.685 43.6701Z" fill="black"/>
<path d="M288.947 40.7638C288.947 40.7638 279.609 59.4388 276.497 66.4419C273.385 73.445 244.984 83.9496 241.093 84.3387C240.05 84.4818 239.078 84.9501 238.315 85.6771C236.117 87.6224 234.868 90.9527 234.868 90.9527C234.868 90.9527 236.425 101.457 234.479 118.965C234.44 119.304 234.405 119.642 234.374 119.969C232.678 136.629 236.23 140.558 236.23 140.558C236.23 140.558 198.492 154.953 199.659 136.278C200.025 130.4 199.97 126.104 199.609 122.513C199.213 118.837 198.465 115.207 197.376 111.674C196.453 108.449 195.352 104.912 194.213 100.096C193.664 97.6925 192.941 95.3324 192.049 93.0342C192.022 92.9642 191.995 92.8941 191.972 92.828C190.026 87.9997 188.081 86.4396 186.968 85.9338C185.918 85.4768 184.917 84.9137 183.98 84.2531C180.386 81.6581 172.671 75.8416 165.8 68.9708C156.463 59.6333 147.126 37.4568 147.126 37.4568C147.126 37.4568 144.402 24.6177 150.627 14.1131C156.852 3.60843 154.128 34.7333 154.128 34.7333C154.128 34.7333 165.411 49.9067 168.134 56.9099C169.535 60.5126 171.76 62.3567 173.581 63.3138C176.589 64.8797 179.469 66.6802 182.195 68.6984C184.037 70.0904 185.972 71.354 187.988 72.4801C192.337 74.8145 197.547 77.4484 201.889 78.1409C202.566 78.2529 203.252 78.3115 203.939 78.316C204.265 78.3264 204.589 78.2616 204.886 78.1267C205.182 77.9917 205.444 77.7903 205.651 77.5379C206.818 76.1645 206.791 73.2076 206.522 70.776C206.379 69.5163 206.166 68.2655 205.884 67.0293C205.884 67.0293 218.528 59.0536 218.139 68.7801C218.079 69.8549 218.179 70.9327 218.435 71.9782C218.642 72.9378 219.1 73.8253 219.762 74.5499C220.425 75.2745 221.268 75.8102 222.205 76.1022C223.723 76.5476 225.33 76.5998 226.873 76.254C227.355 76.1718 227.82 76.0128 228.251 75.7832C229.418 75.0051 241.089 71.5035 244.591 71.1145C248.092 70.7254 265.6 62.1661 265.6 62.1661L284.663 35.7099C284.663 35.7099 284.274 20.1474 292.055 13.9225C299.836 7.69747 288.947 40.7638 288.947 40.7638Z" fill="#FABDBD"/>
<path opacity="0.1" d="M154.323 32.6204C154.513 29.897 154.796 25.0144 154.742 20.6726C154.676 26.4773 154.16 32.3986 154.16 32.3986L154.323 32.6204Z" fill="black"/>
<path opacity="0.1" d="M288.949 38.4278C288.949 38.4278 279.611 57.1027 276.498 64.1058C273.386 71.1089 244.983 81.6135 241.093 82.0026C240.049 82.1457 239.077 82.614 238.315 83.341C236.116 85.2863 234.868 88.6166 234.868 88.6166C234.868 88.6166 234.961 89.2508 235.074 90.4569C235.51 89.457 236.63 87.1616 238.315 85.6753C239.077 84.9483 240.049 84.48 241.093 84.337C244.983 83.9479 273.386 73.4433 276.498 66.4402C279.611 59.4371 288.949 40.7622 288.949 40.7622C288.949 40.7622 295.528 20.784 294.804 14.808C294.205 22.4647 288.949 38.4278 288.949 38.4278Z" fill="black"/>
<path opacity="0.1" d="M199.612 120.176C199.216 116.5 198.468 112.87 197.379 109.337C196.457 106.112 195.356 102.576 194.216 97.7592C193.667 95.356 192.944 92.996 192.053 90.6979C192.026 90.6279 191.998 90.5579 191.975 90.4917C190.03 85.6636 188.085 84.1035 186.972 83.5978C185.922 83.1408 184.921 82.5776 183.984 81.9171C180.39 79.3221 172.675 73.5059 165.805 66.6353C156.468 57.2981 147.132 35.1223 147.132 35.1223C146.787 33.2502 146.594 31.3532 146.556 29.45C146.461 32.1317 146.654 34.816 147.132 37.4566C147.132 37.4566 156.468 59.6324 165.805 68.9695C172.675 75.8401 180.39 81.6564 183.984 84.2514C184.928 84.9133 185.937 85.4765 186.996 85.9321C188.104 86.4378 190.045 87.9979 191.998 92.826C192.022 92.8921 192.049 92.9622 192.076 93.0322C192.964 95.3306 193.683 97.6906 194.228 100.093C195.367 104.91 196.468 108.446 197.39 111.672C198.48 115.205 199.227 118.834 199.623 122.51C199.787 124.137 199.884 125.907 199.911 127.899C199.958 125.321 199.858 122.743 199.612 120.176Z" fill="black"/>
<path d="M238.144 103.277C237.55 104.259 237.029 105.284 236.587 106.343C236 107.977 235.996 109.755 235.887 111.486C235.732 113.916 235.362 116.327 234.782 118.692C234.688 119.127 234.558 119.554 234.393 119.968C234.277 120.246 234.124 120.508 233.938 120.746C233.73 121 233.486 121.221 233.214 121.403C232.797 121.682 232.355 121.923 231.895 122.123C226.479 124.652 220.573 126.885 214.663 126.014C212.165 125.577 209.747 124.764 207.493 123.602C205.353 122.563 202.933 121.33 200.716 122.193C200.375 122.366 200.008 122.48 199.63 122.532C199.557 122.533 199.484 122.526 199.412 122.512C198.681 122.372 198.681 119.906 198.513 119.178C197.875 116.385 197.778 114.12 197.397 111.692C197.194 110.35 196.881 109.026 196.459 107.736C194.903 103.028 194.432 98.009 194.432 93.0756C194.432 92.8305 192.681 93.0756 192.098 93.0523C191.95 93.0523 191.868 93.029 191.903 92.9784C191.937 92.93 191.976 92.8856 192.02 92.8461C192.224 92.6807 192.462 92.5624 192.716 92.4998L193.175 92.3636C195.58 91.6828 198.233 91.3988 200.031 89.7063C201.898 87.9594 202.365 85.1698 202.283 82.6176C202.26 81.7967 201.859 79.8046 201.926 78.1511C202.603 78.2631 203.289 78.3217 203.976 78.3262C204.302 78.3366 204.626 78.2718 204.923 78.1369C205.219 78.0019 205.481 77.8005 205.688 77.5481C206.337 78.8047 206.898 80.1047 207.369 81.4387C208.03 83.065 208.536 84.7769 209.504 86.2475C211.061 88.6442 213.932 90.2199 216.788 89.9787C219.644 89.7375 222.301 87.5431 222.811 84.7263C223.258 82.2558 222.219 78.6997 222.242 76.1319C223.761 76.5772 225.367 76.6294 226.911 76.2836C226.977 76.4422 227.033 76.6046 227.079 76.7699C227.954 79.7735 229.121 83.2206 232.059 84.2867C233.957 84.9714 236.202 84.4579 237.957 85.4539C238.092 85.5314 238.222 85.6171 238.346 85.7107C238.751 86.0118 239.1 86.3819 239.377 86.8039C240.098 87.9939 240.526 89.338 240.626 90.7257C241.075 95.0637 240.21 99.4365 238.144 103.277Z" fill="#2960FF"/>
<path opacity="0.1" d="M218.435 71.972C216.494 72.72 214.405 73.001 212.335 72.7922C210.266 72.5833 208.274 71.8905 206.522 70.7698C206.379 69.5101 206.166 68.2594 205.884 67.0232C205.884 67.0232 218.528 59.0477 218.139 68.774C218.079 69.8487 218.179 70.9265 218.435 71.972Z" fill="black"/>
<path d="M213.665 72.0822C220.971 72.0822 226.893 66.1599 226.893 58.8544C226.893 51.5489 220.971 45.6266 213.665 45.6266C206.36 45.6266 200.437 51.5489 200.437 58.8544C200.437 66.1599 206.36 72.0822 213.665 72.0822Z" fill="#FABDBD"/>
<path opacity="0.1" d="M190.524 91.73C190.524 91.73 216.2 75.3895 295.954 92.8972C375.707 110.405 422.003 96.3988 422.003 96.3988V114.685C422.003 114.685 332.524 124.411 298.288 114.685C264.052 104.958 215.317 99.3479 198.25 114.408L190.524 91.73Z" fill="black"/>
<path d="M191.294 92.5072C191.294 92.5072 216.195 76.1666 295.954 93.6744C375.713 111.182 421.234 97.176 421.234 97.176L421.623 113.906C421.623 113.906 332.915 123.632 298.677 113.906C264.439 104.179 216.09 97.4016 199.021 112.462L191.294 92.5072Z" fill="#F86D70"/>
<path opacity="0.1" d="M181.938 117.64C181.938 117.64 156.261 133.98 76.505 116.473C-3.25065 98.9649 0.639871 112.971 0.639871 112.971V94.6853C0.639871 94.6853 39.9341 84.9587 74.1707 94.6853C108.407 104.412 157.144 110.022 174.212 94.9615L181.938 117.64Z" fill="black"/>
<path d="M181.145 116.861C181.145 116.861 156.246 133.201 76.4902 115.694C-3.26547 98.1859 1.40315 112.192 1.40315 112.192L1.0141 95.4625C1.0141 95.4625 39.5303 85.7359 73.7668 95.4625C108.003 105.189 156.351 111.966 173.419 96.9059L181.145 116.861Z" fill="#F86D70"/>
<path d="M202.29 61.0453C201.901 58.6174 201.302 55.5593 203.333 54.1703C204.057 53.7311 204.894 53.5146 205.741 53.5478C209.946 53.505 213.965 56.4347 218.088 55.5788C219.401 55.3037 220.606 54.6554 221.558 53.7117C222.511 52.7681 223.171 51.5693 223.459 50.2595C223.746 48.9496 223.649 47.5846 223.18 46.3285C222.71 45.0724 221.888 43.9787 220.812 43.179C219.189 41.9729 217.139 41.5371 215.155 41.1286C209.938 40.0547 204.492 38.9848 199.341 40.3504C194.191 41.7161 189.483 46.3344 189.896 51.6336C190.09 54.1703 191.382 56.4737 192.732 58.6369C193.759 60.2788 197.758 67.9747 199.699 68.0914C202.438 68.2509 202.559 62.6327 202.29 61.0453Z" fill="#3F3D56"/>
<path d="M235.068 133.942C235.068 133.942 208.225 140.556 199.278 133.942C199.278 133.942 195.387 149.115 196.554 156.896C196.554 156.896 215.617 158.063 217.562 159.231C217.562 159.231 217.951 156.118 219.896 157.674C219.896 157.674 226.51 149.893 238.57 156.896C238.57 156.896 240.904 138.611 235.068 133.942Z" fill="#2960FF"/>
<path opacity="0.1" d="M220.809 43.1802C220.532 42.9797 220.242 42.7977 219.942 42.6356C220.744 43.5482 221.293 44.6556 221.534 45.847C221.775 47.0384 221.698 48.2721 221.313 49.4249C220.927 50.5776 220.246 51.6089 219.337 52.4158C218.428 53.2226 217.324 53.7767 216.133 54.0227C212.01 54.8786 207.992 51.9492 203.787 51.992C202.941 51.9588 202.104 52.1752 201.379 52.6144C199.349 54.0033 199.944 57.0611 200.333 59.4887C200.59 61.076 200.485 66.6938 197.754 66.542H197.708C198.458 67.4563 199.158 68.0749 199.699 68.0982C202.422 68.2499 202.535 62.6516 202.278 61.0449C201.889 58.6173 201.294 55.5595 203.324 54.1706C204.049 53.7314 204.886 53.5149 205.732 53.5481C209.937 53.5053 213.955 56.4348 218.078 55.5789C219.391 55.3039 220.595 54.6556 221.548 53.712C222.5 52.7684 223.16 51.5697 223.448 50.2601C223.735 48.9504 223.639 47.5855 223.169 46.3295C222.7 45.0735 221.877 43.9799 220.801 43.1802H220.809Z" fill="black"/>
</svg>
